<svg width="70" height="70" viewBox="0 0 70 70" fill="none" xmlns="http://www.w3.org/2000/svg">
<g clip-path="url(#clip0_5_2579)">
<circle cx="34.6093" cy="34.4005" r="33.5" transform="rotate(-14 34.6093 34.4005)" fill="#FFCA45"/>
<path fill-rule="evenodd" clip-rule="evenodd" d="M4.18677 9.52143C2.57913 9.92226 1.60082 11.5504 2.00164 13.1581L13.855 60.6993C21.7144 66.8927 32.253 69.5136 42.7136 66.9055C52.6216 64.4352 60.3889 57.79 64.6079 49.3127L52.457 0.578141C52.0562 -1.0295 50.428 -2.00781 48.8204 -1.60698L4.18677 9.52143Z" fill="#EAF2FF"/>
<path fill-rule="evenodd" clip-rule="evenodd" d="M10.7317 15.1038C10.5981 14.568 10.9242 14.0252 11.46 13.8916L44.4501 5.66628C44.986 5.53267 45.5287 5.85877 45.6623 6.39465C45.7959 6.93053 45.4698 7.47326 44.9339 7.60687L11.9439 15.8322C11.408 15.9658 10.8653 15.6397 10.7317 15.1038ZM12.4251 21.8959C12.2915 21.36 12.6176 20.8173 13.1535 20.6837L46.1435 12.4583C46.6794 12.3247 47.2222 12.6508 47.3558 13.1867C47.4894 13.7226 47.1633 14.2653 46.6274 14.3989L13.6373 22.6243C13.1015 22.7579 12.5587 22.4318 12.4251 21.8959ZM14.8469 27.4758C14.3111 27.6094 13.985 28.1521 14.1186 28.688C14.2522 29.2239 14.7949 29.55 15.3308 29.4164L48.3208 21.191C48.8567 21.0574 49.1828 20.5147 49.0492 19.9788C48.9156 19.4429 48.3729 19.1168 47.837 19.2504L14.8469 27.4758ZM15.812 35.4801C15.6784 34.9442 16.0045 34.4014 16.5404 34.2678L49.5305 26.0425C50.0663 25.9089 50.6091 26.235 50.7427 26.7709C50.8763 27.3067 50.5502 27.8495 50.0143 27.9831L17.0242 36.2084C16.4884 36.342 15.9456 36.0159 15.812 35.4801ZM18.2339 41.0599C17.698 41.1935 17.3719 41.7362 17.5055 42.2721C17.6391 42.808 18.1818 43.1341 18.7177 43.0005L51.7078 34.7752C52.2436 34.6415 52.5697 34.0988 52.4361 33.5629C52.3025 33.0271 51.7598 32.7009 51.2239 32.8346L18.2339 41.0599Z" fill="#76BEFF"/>
<path fill-rule="evenodd" clip-rule="evenodd" d="M37.6319 48.5908C37.096 48.7245 36.7699 49.2672 36.9035 49.8031C37.0372 50.3389 37.5799 50.665 38.1158 50.5314L54.6108 46.4188C55.1467 46.2852 55.4728 45.7424 55.3392 45.2065C55.2056 44.6707 54.6628 44.3446 54.1269 44.4782L37.6319 48.5908ZM39.3254 55.3829C38.7895 55.5165 38.4634 56.0592 38.597 56.5951C38.7306 57.131 39.2733 57.4571 39.8092 57.3235L56.3042 53.2108C56.8401 53.0772 57.1662 52.5345 57.0326 51.9986C56.899 51.4627 56.3563 51.1366 55.8204 51.2702L39.3254 55.3829Z" fill="#76BEFF"/>
<circle cx="26.5918" cy="55.9812" r="9.5" transform="rotate(-14 26.5918 55.9812)" fill="#3DB66D"/>
<path d="M21.3223 57.5817L26.7099 60.5894L32.0518 51.0126" stroke="white" stroke-width="2" stroke-linecap="round" stroke-linejoin="round"/>
<path d="M68.0386 11.4103C67.0621 12.3867 65.8594 12.9977 64.5998 13.2461C62.3087 13.6947 60.1818 14.7253 58.3585 16.1677L53.8003 11.6095C54.0004 11.3552 54.1909 11.0951 54.3735 10.8293C55.5162 9.1801 56.337 7.321 56.7354 5.34104C56.9897 4.08145 57.6083 2.88065 58.5924 1.90817C61.2394 -0.707805 65.6409 -0.621809 68.1873 2.09083C68.6262 2.55868 68.9849 3.07397 69.2652 3.61921C70.556 6.1377 70.1471 9.30178 68.0386 11.4103Z" fill="#A54B0E"/>
<path d="M67.386 9.40456C65.6911 11.0995 63.4749 11.1546 61.37 12.0123C59.6323 12.7204 57.7952 14.2512 56.0838 12.5398L54.3735 10.8296C55.5158 9.18076 56.3393 7.31003 56.7354 5.34128C57.1376 3.34833 58.4654 1.60161 60.2885 0.698314C63.5295 -0.907311 67.6064 0.393294 69.2654 3.61945C69.5872 5.66421 68.9607 7.8297 67.386 9.40456Z" fill="#BF6015"/>
<path d="M59.0073 20.0552L58.9976 20.0649L49.9102 10.9775L49.9199 10.9678C50.1674 10.7203 50.4584 10.5415 50.7667 10.4322C51.0151 10.3423 51.2782 10.2979 51.5392 10.2979C52.125 10.2979 52.7109 10.5202 53.1585 10.9678L59.0073 16.8166C59.654 17.4633 59.8339 18.401 59.5438 19.2093C59.4336 19.5167 59.2548 19.8077 59.0073 20.0552Z" fill="#6D2929"/>
<path d="M59.5437 19.2093L50.7666 10.4322C51.015 10.3423 51.2781 10.2979 51.5391 10.2979C52.1249 10.2979 52.7108 10.5202 53.1584 10.9678L59.0072 16.8166C59.6539 17.4633 59.8337 18.401 59.5437 19.2093Z" fill="#844242"/>
<path d="M56.8564 26.7498L56.1072 27.499C55.9457 27.6605 55.7631 27.7871 55.5677 27.878C54.8591 28.2116 53.9871 28.0858 53.4003 27.499L42.4761 16.5748C41.8893 15.988 41.7636 15.116 42.0971 14.4074C42.188 14.2121 42.3146 14.0293 42.4761 13.8679L43.2253 13.1187L56.8564 26.7498Z" fill="#4D5961"/>
<path d="M56.856 26.7498L56.1068 27.499C55.9453 27.6605 55.7627 27.7871 55.5673 27.878L42.0967 14.4074C42.1876 14.2121 42.3142 14.0293 42.4757 13.8679L43.2249 13.1187L56.856 26.7498Z" fill="#454545"/>
<path d="M59.6067 28.3499C59.0615 28.8023 58.5143 28.8023 57.9691 28.3499L41.6252 12.006C41.0441 11.4249 41.2075 10.842 41.6542 10.3432C42.2284 9.70514 43.2706 9.20625 43.8168 9.0333C45.7319 8.42518 47.8801 8.94731 49.3011 10.3684L59.6067 20.6739C60.0389 21.1061 60.383 21.5934 60.6382 22.1135C61.6368 24.1406 61.2937 26.6629 59.6067 28.3499Z" fill="#D88521"/>
<path d="M59.0505 26.1022C58.5053 26.5546 57.9581 26.5546 57.4129 26.1022L41.6538 10.3432C42.2281 9.70514 43.2703 9.20625 43.8165 9.0333C45.7316 8.42518 47.8797 8.94731 49.3008 10.3684L59.6064 20.6739C60.0386 21.1061 60.3827 21.5934 60.6379 22.1135C60.6776 23.5528 60.1488 25.004 59.0505 26.1022Z" fill="#FEA832"/>
</g>
<defs>
<clipPath id="clip0_5_2579">
<rect width="70" height="70" fill="white"/>
</clipPath>
</defs>
</svg>
