<svg width="70" height="70" viewBox="0 0 70 70" fill="none" xmlns="http://www.w3.org/2000/svg">
<circle cx="35" cy="35" r="31" fill="#FFE05C"/>
<path d="M66.0001 35.0001C66.0001 32.5222 65.7094 30.1122 65.1602 27.8023L53.6791 16.3212L16.3213 53.6791L27.8378 65.1686C30.1368 65.7123 32.5348 66.0001 35.0001 66.0001C52.121 66.0001 66.0001 52.121 66.0001 35.0001Z" fill="#FFBC00"/>
<path d="M35 8.58398C35 8.58398 35 8.58398 35 8.58398C31.2969 8.58398 27.954 10.6265 26.247 13.8585C25.3057 13.5681 24.3253 13.4213 23.3218 13.4213C20.6772 13.4213 18.191 14.4511 16.3211 16.3211C14.4513 18.1911 13.4214 20.6774 13.4214 23.3218C13.4214 24.3254 13.5682 25.3057 13.8586 26.2471C10.6265 27.954 8.58398 31.2969 8.58398 35C8.58398 38.703 10.6263 42.0459 13.8585 43.753C13.5681 44.6943 13.4213 45.6746 13.4213 46.6783C13.4213 49.3227 14.4512 51.809 16.321 53.6789C18.1909 55.5489 20.6772 56.5788 23.3217 56.5788C24.3252 56.5788 25.3055 56.432 26.2469 56.1416C27.9539 59.3736 31.2967 61.4161 34.9998 61.4161C34.9998 61.4161 34.9999 61.4161 34.9998 61.4161L35 8.58398Z" fill="#39C988"/>
<path d="M56.1418 43.7528C56.4324 44.6949 56.5789 45.6745 56.5789 46.6784C56.5789 49.3231 55.5484 51.8091 53.6787 53.6788C51.8091 55.5485 49.323 56.579 46.6783 56.579C45.6745 56.579 44.6948 56.4325 43.7527 56.1419C42.0465 59.3738 38.7031 61.4167 35 61.4167V8.5835C38.7031 8.5835 42.0465 10.6263 43.7527 13.8583C44.6948 13.5677 45.6745 13.4212 46.6783 13.4212C49.323 13.4212 51.8091 14.4517 53.6787 16.3214C55.5484 18.1911 56.5789 20.6771 56.5789 23.3218C56.5789 24.3257 56.4324 25.3053 56.1418 26.2474C59.3738 27.9537 61.4154 31.2971 61.4154 35.0001C61.4154 38.7031 59.3738 42.0465 56.1418 43.7528Z" fill="#3DB66D"/>
<path d="M17.357 42V40.0057L22.0168 35.6911C22.4131 35.3075 22.7455 34.9624 23.0139 34.6555C23.2867 34.3487 23.4933 34.0483 23.634 33.7543C23.7746 33.456 23.8449 33.1342 23.8449 32.7891C23.8449 32.4055 23.7575 32.0753 23.5828 31.7983C23.4081 31.517 23.1695 31.3018 22.8669 31.1527C22.5644 30.9993 22.2213 30.9226 21.8378 30.9226C21.4372 30.9226 21.0878 31.0036 20.7895 31.1655C20.4912 31.3274 20.2611 31.5597 20.0992 31.8622C19.9372 32.1648 19.8563 32.5249 19.8563 32.9425H17.2291C17.2291 32.0859 17.423 31.3423 17.8108 30.7116C18.1986 30.081 18.7419 29.593 19.4408 29.2479C20.1396 28.9027 20.945 28.7301 21.857 28.7301C22.7945 28.7301 23.6105 28.8963 24.3051 29.2287C25.004 29.5568 25.5473 30.0128 25.9351 30.5966C26.3229 31.1804 26.5168 31.8494 26.5168 32.6037C26.5168 33.098 26.4188 33.5859 26.2227 34.0675C26.031 34.549 25.6879 35.0838 25.1936 35.6719C24.6993 36.2557 24.0026 36.9567 23.1034 37.7749L21.1922 39.6477V39.7372H26.6894V42H17.357ZM33.4761 42.179C32.5727 42.179 31.7673 42.0128 31.0599 41.6804C30.3568 41.348 29.7986 40.8899 29.3852 40.3061C28.9719 39.7223 28.7567 39.0533 28.7396 38.299H31.4243C31.4541 38.8061 31.6672 39.2173 32.0635 39.5327C32.4598 39.848 32.9307 40.0057 33.4761 40.0057C33.9108 40.0057 34.2943 39.9098 34.6267 39.718C34.9633 39.522 35.2254 39.2514 35.4129 38.9062C35.6047 38.5568 35.7006 38.1562 35.7006 37.7045C35.7006 37.2443 35.6025 36.8395 35.4065 36.4901C35.2148 36.1406 34.9484 35.8679 34.6075 35.6719C34.2666 35.4759 33.8767 35.3757 33.4378 35.3714C33.0542 35.3714 32.6814 35.4503 32.3192 35.608C31.9612 35.7656 31.6821 35.9808 31.4818 36.2536L29.0209 35.8125L29.6409 28.9091H37.6437V31.1719H31.9229L31.5841 34.451H31.6608C31.8909 34.1271 32.2382 33.8587 32.7027 33.6456C33.1672 33.4325 33.6871 33.326 34.2623 33.326C35.0507 33.326 35.7538 33.5114 36.3717 33.8821C36.9896 34.2528 37.4775 34.7621 37.8355 35.4098C38.1934 36.0533 38.3703 36.7947 38.366 37.6342C38.3703 38.5163 38.1657 39.3004 37.7524 39.9865C37.3433 40.6683 36.7702 41.2053 36.0329 41.5973C35.3 41.9851 34.4477 42.179 33.4761 42.179ZM47.4619 39.5455V38.8551C47.4619 38.331 47.5727 37.8494 47.7943 37.4105C48.0202 36.9673 48.3461 36.6136 48.7723 36.3494C49.2027 36.081 49.7268 35.9467 50.3447 35.9467C50.9711 35.9467 51.4974 36.0788 51.9236 36.343C52.354 36.6072 52.6778 36.9609 52.8952 37.4041C53.1167 37.843 53.2275 38.3267 53.2275 38.8551V39.5455C53.2275 40.0696 53.1167 40.5533 52.8952 40.9964C52.6736 41.4354 52.3476 41.7869 51.9172 42.0511C51.4868 42.3196 50.9626 42.4538 50.3447 42.4538C49.7183 42.4538 49.192 42.3196 48.7659 42.0511C48.3398 41.7869 48.0159 41.4354 47.7943 40.9964C47.5727 40.5533 47.4619 40.0696 47.4619 39.5455ZM49.322 38.8551V39.5455C49.322 39.848 49.3944 40.1335 49.5393 40.402C49.6885 40.6705 49.9569 40.8047 50.3447 40.8047C50.7325 40.8047 50.9967 40.6726 51.1373 40.4084C51.2822 40.1442 51.3547 39.8565 51.3547 39.5455V38.8551C51.3547 38.544 51.2865 38.2543 51.1501 37.9858C51.0138 37.7173 50.7453 37.5831 50.3447 37.5831C49.9612 37.5831 49.6949 37.7173 49.5457 37.9858C49.3966 38.2543 49.322 38.544 49.322 38.8551ZM40.7439 32.054V31.3636C40.7439 30.8352 40.8568 30.3516 41.0827 29.9126C41.3085 29.4695 41.6345 29.1158 42.0606 28.8516C42.491 28.5874 43.0109 28.4553 43.6203 28.4553C44.251 28.4553 44.7794 28.5874 45.2055 28.8516C45.6317 29.1158 45.9555 29.4695 46.1771 29.9126C46.3987 30.3516 46.5095 30.8352 46.5095 31.3636V32.054C46.5095 32.5824 46.3966 33.0661 46.1707 33.505C45.9491 33.9439 45.6231 34.2955 45.1927 34.5597C44.7666 34.8196 44.2425 34.9496 43.6203 34.9496C42.9981 34.9496 42.4719 34.8175 42.0415 34.5533C41.6153 34.2848 41.2915 33.9332 41.0699 33.4986C40.8525 33.0597 40.7439 32.5781 40.7439 32.054ZM42.6167 31.3636V32.054C42.6167 32.3651 42.6892 32.6527 42.8341 32.9169C42.9832 33.1811 43.2453 33.3132 43.6203 33.3132C44.0123 33.3132 44.2787 33.1811 44.4193 32.9169C44.5642 32.6527 44.6366 32.3651 44.6366 32.054V31.3636C44.6366 31.0526 44.5684 30.7628 44.4321 30.4943C44.2957 30.2259 44.0251 30.0916 43.6203 30.0916C43.241 30.0916 42.979 30.228 42.8341 30.5007C42.6892 30.7734 42.6167 31.0611 42.6167 31.3636ZM41.5876 42L50.5876 28.9091H52.2623L43.2623 42H41.5876Z" fill="white"/>
</svg>
