<svg width="70" height="70" viewBox="0 0 70 70" fill="none" xmlns="http://www.w3.org/2000/svg">
<path d="M4.34082 33.276V45.4376L45.406 62V48.9472L4.34082 33.276Z" fill="#39C988"/>
<path d="M22.2012 40.0916V52.6408L28.1458 55.0384V42.3602L22.2012 40.0916Z" fill="#FFCA6C"/>
<path d="M5.4987 32.707L4.33984 33.2733L4.34134 33.2755L45.4058 48.9467L47.5443 47.4338L5.4987 32.707Z" fill="#49E4A3"/>
<path d="M23.0963 39.4218L22.2012 40.0913C24.0631 40.8725 26.0719 41.6247 28.1291 42.3669L29.3319 41.4657L23.0963 39.4218Z" fill="#FFDE9B"/>
<path d="M45.4058 48.9471V61.9999L65.6061 47.4624V34.6566L45.4058 48.9471Z" fill="#28AF6E"/>
<path d="M47.5446 47.4344L5.5013 33.6567V25.7898L13.61 28.511C13.61 28.511 6.28714 24.6557 4 22.8147V18.1855C4 18.1855 16.285 29.4564 46.4036 36.4775V39.1035L47.5446 40.1266V47.4344Z" fill="#28AF6E"/>
<path d="M21.9497 28.3616V38.8112L27.7888 40.7247V30.6935C25.6946 29.917 23.7501 29.1353 21.9497 28.3616Z" fill="#FFCA6C"/>
<path d="M64.514 22.9046L46.4024 36.4786C39.5471 34.8055 33.3885 32.9696 27.9263 30.9969C25.869 30.2547 23.9095 29.4929 22.0475 28.7117C14.2677 25.4566 8.23917 21.8955 4.00098 18.1847C11.2665 13.2694 18.5776 9.5716 25.9407 7C31.8135 11.8043 38.5314 15.1874 45.6083 17.7485C51.0117 19.7016 57.2421 21.4137 64.514 22.9046Z" fill="#49E4A3"/>
<path d="M66.4986 34.0255L47.5444 47.4342V40.1457L66.3116 26.0677L66.4986 34.0255Z" fill="#39C988"/>
<path d="M64.5133 22.9056V25.6509L46.4033 39.0871V36.4775L64.5133 22.9056Z" fill="#39C988"/>
<path d="M66.3114 26.0675L47.5443 40.1454L46.4033 39.0869L64.5133 25.6506L66.3114 26.0675Z" fill="#49E4A3"/>
<path d="M13.6097 28.5108L5.50098 25.7896L7.2751 24.9712C7.2751 24.9712 11.6829 27.5861 13.6097 28.5108Z" fill="#39C988"/>
<path d="M65.6064 34.6556V40.793L47.5444 47.4348L65.6064 34.6556Z" fill="#189453"/>
<path fill-rule="evenodd" clip-rule="evenodd" d="M8.40186 19.2542C16.4825 25.0296 29.0108 30.1454 45.035 34.1932C45.5305 33.8203 46.1692 33.6927 46.7707 33.8434L58.3103 25.1953C57.4649 24.9904 57.2394 23.8933 57.9356 23.3716C44.309 20.0701 34.3618 15.7748 26.4709 9.81383C25.8082 10.0683 25.0632 9.96084 24.4953 9.53516C19.0862 11.5894 13.7128 14.272 8.45659 17.5413C9.05435 17.9683 9.02557 18.866 8.40186 19.2542ZM17.8914 17.8759C17.8914 17.8759 16.0942 16.7683 19.0457 15.5374C21.9973 14.3066 23.2644 15.1849 23.5745 15.7285C23.7281 15.9978 23.7245 17.2309 21.9559 17.9956C20.1874 18.7604 18.5176 18.3145 17.8914 17.8759ZM37.8704 25.603C44.8595 22.6885 40.6037 20.0654 40.6037 20.0654C39.1208 19.0269 35.1664 17.9708 30.9786 19.7818C26.7907 21.5927 26.7824 24.5127 27.1461 25.1503C27.8805 26.4376 30.8813 28.5176 37.8704 25.603ZM43.4947 28.8045C43.8048 29.3481 45.072 30.2265 48.0236 28.9956C51.9665 27.3515 48.1397 25.2286 45.1131 26.5374C43.3446 27.3021 43.341 28.5353 43.4947 28.8045Z" fill="#39C988"/>
<path d="M45.6087 17.7484L27.9267 30.9967C25.8694 30.2546 23.9098 29.4928 22.0479 28.7116L39.8014 15.4047C41.6243 16.2249 43.5579 17.0061 45.6087 17.7484Z" fill="#FFDE9B"/>
</svg>
